{"title":"StreetDance.2.2012.720p.BluRay.x264-HAiDEAF","uid":7459504,"size":4745131980,"categoryP":"video","categoryS":"hd___movies","magnet":"?xt=urn:btih:2d4898ac01bf1c515cd5abe84460bb5446d183a8&amp;dn=StreetDance.2.2012.720p.BluRay.x264-HAiDEAF&amp;tr=udp%3A%2F%2Ftracker.openbittorrent.com%3A80&amp;tr=udp%3A%2F%2Fopen.demonii.com%3A1337&amp;tr=udp%3A%2F%2Ftracker.coppersurfer.tk%3A6969&amp;tr=udp%3A%2F%2Fexodus.desync.com%3A6969","seeders":0,"leechers":1,"uploader":"tykoon123","files":-1,"time":1342774906,"description":"Cover: &lt;a href=&quot;\nhttp://picturestack.com/767/45/MOlStreetdancjWd.jpg&quot; rel=&quot;nofollow&quot; target=&quot;_NEW&quot;&gt;\nhttp://picturestack.com/767/45/MOlStreetdancjWd.jpg&lt;/a&gt;\n\nInfo:\n\nFormat : Matroska\nFormat version : Version 2\nFile size : 4.37 GiB\nDuration : 1h 24mn\nOverall bit rate : 7 361 Kbps\nEncoded date : UTC 2012-07-19 19:00:31\nWriting application : mkvmerge v5.7.0 ('The Whirlwind') built on Jul 8 2012 20:08:51\nWriting library : libebml v1.2.3 + libmatroska v1.3.0\n\nVideo\nID : 1\nFormat : AVC\nFormat/Info : Advanced Video Codec\nFormat profile : &lt;a class=&quot;__cf_email__&quot; href=&quot;/cdn-cgi/l/email-protection&quot; data-cfemail=&quot;662e0f010e262a524857&quot;&gt;[email&amp;#160;protected]&lt;/a&gt;&lt;script cf-hash='f9e31' type=&quot;text/javascript&quot;&gt;\n/* &lt;![CDATA[ */!function(){try{var t=&quot;currentScript&quot;in document?document.currentScript:function(){for(var t=document.getElementsByTagName(&quot;script&quot;),e=t.length;e--;)if(t[e].getAttribute(&quot;cf-hash&quot;))return t[e]}();if(t&amp;&amp;t.previousSibling){var e,r,n,i,c=t.previousSibling,a=c.getAttribute(&quot;data-cfemail&quot;);if(a){for(e=&quot;&quot;,r=parseInt(a.substr(0,2),16),n=2;a.length-n;n+=2)i=parseInt(a.substr(n,2),16)^r,e+=String.fromCharCode(i);e=document.createTextNode(e),c.parentNode.replaceChild(e,c)}}}catch(u){}}();/* ]]&gt; */&lt;/script&gt;\nFormat settings, CABAC : Yes\nFormat settings, ReFrames : 5 frames\nCodec ID : V_MPEG4/ISO/AVC\nDuration : 1h 24mn\nBit rate : 6 599 Kbps\nWidth : 1 280 pixels\nHeight : 688 pixels\nDisplay aspect ratio : 1.85:1\nFrame rate : 23.976 fps\nColor space : YUV\nChroma subsampling : 4:2:0\nBit depth : 8 bits\nScan type : Progressive\nBits/(Pixel*Frame) : 0.313\nStream size : 3.83 GiB (88%)\nWriting library : x264 core 125 r2200 999b753\nLanguage : English\nDefault : Yes\nForced : No\n\nAudio\nID : 2\nFormat : DTS\nFormat/Info : Digital Theater Systems\nCodec ID : A_DTS\nDuration : 1h 24mn\nBit rate mode : Constant\nBit rate : 754 Kbps\nChannel(s) : 6 channels\nChannel positions : Front: L C R, Side: L R, LFE\nSampling rate : 48.0 KHz\nBit depth : 24 bits\nCompression mode : Lossy\nStream size : 458 MiB (10%)\nLanguage : English\nDefault : Yes\nForced : No\n\nText\nID : 3\nFormat : UTF-8\nCodec ID : S_TEXT/UTF8\nCodec ID/Info : UTF-8 Plain Text\nLanguage : English\nDefault : Yes\nForced : No\n\nSCREENS:\n &lt;a href=&quot;\nhttp://picturestack.com/767/212/YEThaideafsd2chT.jpg&quot; rel=&quot;nofollow&quot; target=&quot;_NEW&quot;&gt;\nhttp://picturestack.com/767/212/YEThaideafsd2chT.jpg&lt;/a&gt; &lt;a href=&quot;\nhttp://picturestack.com/767/271/unShaideafsd2wIk.jpg&quot; rel=&quot;nofollow&quot; target=&quot;_NEW&quot;&gt;\nhttp://picturestack.com/767/271/unShaideafsd2wIk.jpg&lt;/a&gt; &lt;a href=&quot;\nhttp://picturestack.com/767/289/ScUhaideafsd2wys.jpg&quot; rel=&quot;nofollow&quot; target=&quot;_NEW&quot;&gt;\nhttp://picturestack.com/767/289/ScUhaideafsd2wys.jpg&lt;/a&gt; &lt;a href=&quot;\nhttp://picturestack.com/767/309/uNShaideafsd2pOn.jpg&quot; rel=&quot;nofollow&quot; target=&quot;_NEW&quot;&gt;\nhttp://picturestack.com/767/309/uNShaideafsd2pOn.jpg&lt;/a&gt; &lt;a href=&quot;\nhttp://picturestack.com/767/339/swahaideafsd2GP9.jpg&quot; rel=&quot;nofollow&quot; target=&quot;_NEW&quot;&gt;\nhttp://picturestack.com/767/339/swahaideafsd2GP9.jpg&lt;/a&gt;","torrent":{"xt":"urn:btih:2d4898ac01bf1c515cd5abe84460bb5446d183a8","amp;dn":"StreetDance.2.2012.720p.BluRay.x264-HAiDEAF","amp;tr":["udp%3A%2F%2Ftracker.openbittorrent.com%3A80","udp%3A%2F%2Fopen.demonii.com%3A1337","udp%3A%2F%2Ftracker.coppersurfer.tk%3A6969","udp%3A%2F%2Fexodus.desync.com%3A6969"],"infoHash":"2d4898ac01bf1c515cd5abe84460bb5446d183a8","infoHashBuffer":{"type":"Buffer","data":[45,72,152,172,1,191,28,81,92,213,171,232,68,96,187,84,70,209,131,168]},"announce":[],"urlList":[]}}